<svg width="970" height="250" viewBox="0 0 970 250" fill="none" xmlns="http://www.w3.org/2000/svg">
<g clip-path="url(#clip0_2853_3)">
<path d="M575.832 245.385C572.352 233.367 568.704 220.588 564.887 207.045C561.071 193.561 557.475 180.928 554.1 169.194L547.302 145.301C547.839 138.793 548.112 132.127 548.122 125.303C548.29 102.298 544.645 79.4253 537.335 57.6126C530.884 38.3501 520.743 20.5281 507.48 5.1416H584.586C587.629 19.178 590.768 34.1765 594.143 49.9951C597.518 65.8136 600.451 80.8752 603.29 94.9116L619.96 175.345H624.692L642.86 94.6277C646.12 80.3705 649.49 65.5087 652.97 50.0424C656.455 34.6654 659.83 19.6827 663.079 5.18891H737.866C735.17 14.9671 732.362 25.0134 729.382 35.1543C726.401 45.2952 723.436 55.6569 720.518 65.4667C717.6 75.2764 714.903 84.8338 712.427 93.713L690.537 169.163C687.046 181.065 683.398 193.719 679.592 207.124C675.785 220.53 672.106 233.252 668.552 245.291L575.832 245.385Z" fill="white"/>
<path d="M21.7894 245.387V5.20605H81.7202C91.2776 19.4738 100.152 32.6848 108.342 44.8392C116.527 57.0935 124.792 69.3793 133.103 81.8386L164.929 129.152H169.818V5.20605H234.654V36.5278L234.165 37.5371C221.443 63.9172 215.066 93.3568 215.035 125.856C214.941 148.049 218.424 170.112 225.349 191.197C227.894 198.891 231.004 206.387 234.654 213.623V245.402H175.386C167.532 233.837 159.43 221.877 151.082 209.523C142.734 197.169 133.655 183.695 123.845 169.101L91.3407 121.251H86.6093V245.387H21.7894Z" fill="white"/>
<path d="M708.091 245.387C712.023 232.601 716.182 219.033 720.566 204.681C724.935 190.487 729.146 176.892 733.183 164.212L758.622 81.6809C763.227 66.6351 767.38 53.1612 771.081 41.2592C774.782 29.3571 778.489 17.3394 782.2 5.20605H870.961C874.888 17.8231 878.657 30.1877 882.364 42.095C886.07 54.0023 890.044 67.1871 894.539 81.6809L919.773 164.212C923.937 177.46 928.147 191.102 932.516 205.138C936.885 219.175 940.938 232.596 944.881 245.387H873.122C870.209 233.369 867.213 221.02 864.132 208.34C861.051 195.66 858.039 183.7 855.095 172.46L828.347 63.0866H823.458L796.174 171.12C793.261 182.906 790.175 195.255 786.916 208.166C783.656 221.078 780.502 233.485 777.453 245.387H708.091Z" fill="white"/>
<path d="M382.683 250.274C360.341 250.274 341.084 246.925 324.913 240.228C309.713 234.262 296.134 224.795 285.28 212.597C275.027 200.966 267.251 187.368 262.427 172.632C257.451 157.465 254.948 141.596 255.015 125.634C255.015 102.271 259.599 81.1063 268.768 62.1387C277.847 43.2514 292.326 27.4825 310.372 16.8279C328.909 5.60931 352.45 0 380.996 0C402.665 0 421.475 3.25414 437.425 9.76241C452.473 15.6683 466.001 24.8795 477.011 36.7155C487.506 48.2531 495.477 61.854 500.416 76.6483C505.669 92.3321 508.286 108.779 508.159 125.318C508.159 149.343 503.428 170.75 493.965 189.539C484.684 208.217 470.031 223.695 451.888 233.982C433.256 244.833 410.183 250.264 382.667 250.274H382.683ZM381.832 193.845C389.906 194.031 397.897 192.176 405.063 188.451C411.751 184.813 417.518 179.694 421.922 173.484C426.65 166.851 430.169 159.435 432.315 151.578C434.633 142.997 435.784 134.143 435.738 125.255C435.798 116.1 434.533 106.985 431.984 98.1918C429.653 90.3372 426.005 82.9353 421.197 76.3014C416.701 70.2461 410.908 65.2725 404.243 61.7445C397.318 58.1971 389.627 56.4045 381.847 56.5242C374.032 56.3208 366.286 58.0445 359.294 61.5431C352.303 65.0418 346.28 70.2078 341.757 76.5852C336.974 83.2272 333.382 90.6504 331.143 98.523C326.255 115.863 326.201 134.209 330.985 151.578C333.126 159.434 336.64 166.85 341.363 173.484C345.759 179.748 351.595 184.865 358.38 188.403C365.632 192.13 373.695 193.999 381.847 193.845H381.832Z" fill="#D80E15"/>
</g>
<defs>
<clipPath id="clip0_2853_3">
<rect width="970" height="250" fill="white"/>
</clipPath>
</defs>
</svg>
